<svg xmlns="http://www.w3.org/2000/svg" xmlns:xlink="http://www.w3.org/1999/xlink" width="500" zoomAndPan="magnify" viewBox="0 0 375 374.999991" height="500" preserveAspectRatio="xMidYMid meet" version="1.0"><defs><g/></defs><rect x="-37.5" width="450" fill="#ffffff" y="-37.499999" height="449.999989" fill-opacity="1"/><rect x="-37.5" width="450" fill="#ffffff" y="-37.499999" height="449.999989" fill-opacity="1"/><g fill="#085ceb" fill-opacity="1"><g transform="translate(112.092806, 201.787237)"><g><path d="M 3.15625 -43.46875 L 16.65625 -43.46875 C 20.726562 -43.46875 23.972656 -42.597656 26.390625 -40.859375 C 28.816406 -39.117188 30.03125 -36.300781 30.03125 -32.40625 C 30.03125 -28.050781 28.222656 -24.941406 24.609375 -23.078125 C 30.785156 -21.984375 33.875 -18.332031 33.875 -12.125 C 33.875 -8.46875 32.609375 -5.53125 30.078125 -3.3125 C 27.554688 -1.101562 24.082031 0 19.65625 0 L 3.15625 0 Z M 13.0625 -26.453125 L 13.859375 -26.453125 C 16.066406 -26.453125 17.710938 -26.835938 18.796875 -27.609375 C 19.890625 -28.378906 20.4375 -29.644531 20.4375 -31.40625 C 20.4375 -34.351562 18.242188 -35.828125 13.859375 -35.828125 L 13.0625 -35.828125 Z M 13.0625 -7.640625 L 16.171875 -7.640625 C 21.023438 -7.640625 23.453125 -9.253906 23.453125 -12.484375 C 23.453125 -14.421875 22.84375 -15.804688 21.625 -16.640625 C 20.414062 -17.484375 18.597656 -17.90625 16.171875 -17.90625 L 13.0625 -17.90625 Z M 13.0625 -7.640625 "/></g></g></g><g fill="#085ceb" fill-opacity="1"><g transform="translate(142.229598, 201.787237)"><g><path d="M 4.046875 -42.09375 C 5.140625 -43.1875 6.441406 -43.734375 7.953125 -43.734375 C 9.460938 -43.734375 10.757812 -43.1875 11.84375 -42.09375 C 12.9375 -41.007812 13.484375 -39.710938 13.484375 -38.203125 C 13.484375 -36.691406 12.9375 -35.390625 11.84375 -34.296875 C 10.757812 -33.210938 9.460938 -32.671875 7.953125 -32.671875 C 6.441406 -32.671875 5.140625 -33.210938 4.046875 -34.296875 C 2.960938 -35.390625 2.421875 -36.691406 2.421875 -38.203125 C 2.421875 -39.710938 2.960938 -41.007812 4.046875 -42.09375 Z M 3.15625 -27.03125 L 3.15625 0 L 12.484375 0 L 12.484375 -27.03125 Z M 3.15625 -27.03125 "/></g></g></g><g fill="#085ceb" fill-opacity="1"><g transform="translate(153.188131, 201.787237)"><g><path d="M 3.15625 0 L 3.15625 -27.03125 L 12.484375 -27.03125 L 12.484375 -24.1875 L 12.59375 -24.1875 C 15.019531 -26.601562 17.601562 -27.8125 20.34375 -27.8125 C 21.675781 -27.8125 23 -27.632812 24.3125 -27.28125 C 25.632812 -26.9375 26.898438 -26.394531 28.109375 -25.65625 C 29.316406 -24.914062 30.296875 -23.867188 31.046875 -22.515625 C 31.804688 -21.171875 32.1875 -19.601562 32.1875 -17.8125 L 32.1875 0 L 22.859375 0 L 22.859375 -15.28125 C 22.859375 -16.6875 22.410156 -17.914062 21.515625 -18.96875 C 20.617188 -20.019531 19.453125 -20.546875 18.015625 -20.546875 C 16.609375 -20.546875 15.332031 -20 14.1875 -18.90625 C 13.050781 -17.820312 12.484375 -16.613281 12.484375 -15.28125 L 12.484375 0 Z M 3.15625 0 "/></g></g></g><g fill="#085ceb" fill-opacity="1"><g transform="translate(183.061483, 201.787237)"><g><path d="M 5 -3.34375 C 2.476562 -6.101562 1.21875 -9.484375 1.21875 -13.484375 C 1.21875 -17.492188 2.476562 -20.882812 5 -23.65625 C 7.53125 -26.425781 10.742188 -27.8125 14.640625 -27.8125 C 18.222656 -27.8125 21.175781 -26.691406 23.5 -24.453125 L 23.5 -45.3125 L 32.828125 -45.3125 L 32.828125 0 L 23.609375 0 L 23.609375 -3.0625 L 23.5 -3.0625 C 21.175781 -0.488281 18.222656 0.796875 14.640625 0.796875 C 10.742188 0.796875 7.53125 -0.582031 5 -3.34375 Z M 12.921875 -18.0625 C 11.710938 -16.875 11.109375 -15.347656 11.109375 -13.484375 C 11.109375 -11.628906 11.6875 -10.113281 12.84375 -8.9375 C 14.007812 -7.757812 15.539062 -7.171875 17.4375 -7.171875 C 19.257812 -7.171875 20.757812 -7.765625 21.9375 -8.953125 C 23.113281 -10.148438 23.703125 -11.660156 23.703125 -13.484375 C 23.703125 -15.347656 23.097656 -16.875 21.890625 -18.0625 C 20.679688 -19.257812 19.195312 -19.859375 17.4375 -19.859375 C 15.644531 -19.859375 14.140625 -19.257812 12.921875 -18.0625 Z M 12.921875 -18.0625 "/></g></g></g><g fill="#085ceb" fill-opacity="1"><g transform="translate(214.093956, 201.787237)"><g><path d="M 14.90625 -27.8125 C 16.457031 -27.8125 17.988281 -27.632812 19.5 -27.28125 C 21.007812 -26.9375 22.128906 -26.585938 22.859375 -26.234375 L 23.96875 -25.71875 L 20.921875 -19.59375 C 18.804688 -20.71875 16.800781 -21.28125 14.90625 -21.28125 C 13.851562 -21.28125 13.109375 -21.164062 12.671875 -20.9375 C 12.234375 -20.707031 12.015625 -20.28125 12.015625 -19.65625 C 12.015625 -19.507812 12.03125 -19.363281 12.0625 -19.21875 C 12.101562 -19.082031 12.175781 -18.953125 12.28125 -18.828125 C 12.382812 -18.710938 12.476562 -18.609375 12.5625 -18.515625 C 12.65625 -18.429688 12.804688 -18.335938 13.015625 -18.234375 C 13.222656 -18.128906 13.390625 -18.046875 13.515625 -17.984375 C 13.640625 -17.929688 13.84375 -17.851562 14.125 -17.75 C 14.40625 -17.644531 14.613281 -17.566406 14.75 -17.515625 C 14.894531 -17.460938 15.132812 -17.382812 15.46875 -17.28125 C 15.800781 -17.175781 16.054688 -17.109375 16.234375 -17.078125 C 17.316406 -16.753906 18.257812 -16.398438 19.0625 -16.015625 C 19.875 -15.628906 20.726562 -15.101562 21.625 -14.4375 C 22.519531 -13.769531 23.210938 -12.925781 23.703125 -11.90625 C 24.203125 -10.882812 24.453125 -9.726562 24.453125 -8.4375 C 24.453125 -2.28125 20.179688 0.796875 11.640625 0.796875 C 9.710938 0.796875 7.878906 0.5 6.140625 -0.09375 C 4.398438 -0.695312 3.144531 -1.296875 2.375 -1.890625 L 1.21875 -2.84375 L 5 -9.21875 C 5.28125 -8.96875 5.648438 -8.675781 6.109375 -8.34375 C 6.566406 -8.007812 7.390625 -7.550781 8.578125 -6.96875 C 9.773438 -6.394531 10.816406 -6.109375 11.703125 -6.109375 C 13.628906 -6.109375 14.59375 -6.757812 14.59375 -8.0625 C 14.59375 -8.65625 14.347656 -9.117188 13.859375 -9.453125 C 13.367188 -9.785156 12.535156 -10.160156 11.359375 -10.578125 C 10.179688 -11.003906 9.257812 -11.394531 8.59375 -11.75 C 6.90625 -12.625 5.566406 -13.613281 4.578125 -14.71875 C 3.597656 -15.832031 3.109375 -17.300781 3.109375 -19.125 C 3.109375 -21.863281 4.171875 -23.992188 6.296875 -25.515625 C 8.421875 -27.046875 11.289062 -27.8125 14.90625 -27.8125 Z M 14.90625 -27.8125 "/></g></g></g><g fill="#085ceb" fill-opacity="1"><g transform="translate(235.063113, 201.787237)"><g/></g></g><g fill="#085ceb" fill-opacity="1"><g transform="translate(244.493696, 201.787237)"><g><path d="M 9.171875 -11.28125 C 10.859375 -11.28125 12.289062 -10.691406 13.46875 -9.515625 C 14.644531 -8.335938 15.234375 -6.90625 15.234375 -5.21875 C 15.234375 -3.5625 14.644531 -2.144531 13.46875 -0.96875 C 12.289062 0.207031 10.859375 0.796875 9.171875 0.796875 C 7.515625 0.796875 6.097656 0.207031 4.921875 -0.96875 C 3.742188 -2.144531 3.15625 -3.5625 3.15625 -5.21875 C 3.15625 -6.90625 3.742188 -8.335938 4.921875 -9.515625 C 6.097656 -10.691406 7.515625 -11.28125 9.171875 -11.28125 Z M 9.171875 -11.28125 "/></g></g></g></svg>